<svg xmlns="http://www.w3.org/2000/svg" xmlns:xlink="http://www.w3.org/1999/xlink" width="118" height="118" viewBox="0 0 118 118">
  <defs>
    <filter id="Rectángulo_411831" x="0" y="0" width="118" height="118" filterUnits="userSpaceOnUse">
      <feOffset dy="3" input="SourceAlpha"/>
      <feGaussianBlur stdDeviation="3" result="blur"/>
      <feFlood flood-opacity="0.161"/>
      <feComposite operator="in" in2="blur"/>
      <feComposite in="SourceGraphic"/>
    </filter>
    <clipPath id="clip-path">
      <rect id="Rectángulo_436954" data-name="Rectángulo 436954" width="75" height="71" transform="translate(348.281 3872.5)" fill="#fff" stroke="#707070" stroke-width="1"/>
    </clipPath>
    <clipPath id="clip-path-2">
      <path id="path2093" d="M0-71H71V0H0Z"/>
    </clipPath>
  </defs>
  <g id="Grupo_1262249" data-name="Grupo 1262249" transform="translate(-326.781 -3852)">
    <g transform="matrix(1, 0, 0, 1, 326.78, 3852)" filter="url(#Rectángulo_411831)">
      <g id="Rectángulo_411831-2" data-name="Rectángulo 411831" transform="translate(9 6)" fill="#e8de49" stroke="#fff" stroke-width="2">
        <path d="M5,0H68a32,32,0,0,1,32,32V95a5,5,0,0,1-5,5H32A32,32,0,0,1,0,68V5A5,5,0,0,1,5,0Z" stroke="none"/>
        <path d="M5,1H68A31,31,0,0,1,99,32V95a4,4,0,0,1-4,4H32A31,31,0,0,1,1,68V5A4,4,0,0,1,5,1Z" fill="none"/>
      </g>
    </g>
    <g id="Enmascarar_grupo_1099718" data-name="Enmascarar grupo 1099718" clip-path="url(#clip-path)">
      <g id="g2079" transform="translate(350.281 3943.5)">
        <g id="g2081" transform="translate(4.151 -1.387)">
          <path id="path2083" d="M0,0V-68.221H41.047l8.875,8.87V0Z" fill="#eff3f3"/>
        </g>
        <g id="g2085" transform="translate(45.198 -69.613)">
          <path id="path2087" d="M0,0V8.875H8.875Z" fill="#ffe6c0"/>
        </g>
        <g id="g2089">
          <g id="g2091" clip-path="url(#clip-path-2)">
            <g id="g2097" transform="translate(45.198 -69.613)">
              <path id="path2099" d="M0,0V8.875H8.875" fill="none" stroke="#000" stroke-linecap="round" stroke-linejoin="round" stroke-miterlimit="10" stroke-width="2.773"/>
            </g>
            <g id="g2101" transform="translate(43.314 -2.5)">
              <path id="path2103" d="M0,0A8.33,8.33,0,0,1-3.046-11.366l9.8-16.982a2.773,2.773,0,0,1,3.789-1.015,2.773,2.773,0,0,1,1.015,3.789L1.758-8.592A2.777,2.777,0,0,0,2.773-4.8,2.776,2.776,0,0,0,6.562-5.819L16.876-23.683A8.33,8.33,0,0,0,13.83-35.049,8.33,8.33,0,0,0,2.465-32L-10.02-10.379a2.773,2.773,0,0,1-3.789,1.015,2.773,2.773,0,0,1-1.015-3.789L-2.339-34.777A13.883,13.883,0,0,1,16.6-39.852,13.883,13.883,0,0,1,21.68-20.91L11.366-3.046A8.33,8.33,0,0,1,0,0" fill="#ffcb7c"/>
            </g>
            <g id="g2105" transform="translate(43.314 -2.5)">
              <path id="path2107" d="M0,0A8.33,8.33,0,0,1-3.046-11.366l9.8-16.982a2.773,2.773,0,0,1,3.789-1.015,2.773,2.773,0,0,1,1.015,3.789L1.758-8.592A2.777,2.777,0,0,0,2.773-4.8,2.776,2.776,0,0,0,6.562-5.819L16.876-23.683A8.33,8.33,0,0,0,13.83-35.049,8.33,8.33,0,0,0,2.465-32L-10.02-10.379a2.773,2.773,0,0,1-3.789,1.015,2.773,2.773,0,0,1-1.015-3.789L-2.339-34.777A13.883,13.883,0,0,1,16.6-39.852,13.883,13.883,0,0,1,21.68-20.91L11.366-3.046A8.33,8.33,0,0,1,0,0Z" fill="none" stroke="#000" stroke-linecap="round" stroke-linejoin="round" stroke-miterlimit="10" stroke-width="2.773"/>
            </g>
            <g id="g2109" transform="translate(14.136 -35.5)">
              <path id="path2111" d="M0,0H25.423" fill="none" stroke="#000" stroke-linecap="round" stroke-linejoin="round" stroke-miterlimit="10" stroke-width="2.773"/>
            </g>
            <g id="g2113" transform="translate(20.376 -53.25)">
              <path id="path2115" d="M0,0H23.713" fill="none" stroke="#000" stroke-linecap="round" stroke-linejoin="round" stroke-miterlimit="10" stroke-width="2.773"/>
            </g>
            <g id="g2117" transform="translate(14.136 -53.25)">
              <path id="path2119" d="M0,0H0" fill="none" stroke="#000" stroke-linecap="round" stroke-linejoin="round" stroke-miterlimit="10" stroke-width="2.773"/>
            </g>
            <g id="g2121" transform="translate(14.136 -44.375)">
              <path id="path2123" d="M0,0H25.423" fill="none" stroke="#000" stroke-linecap="round" stroke-linejoin="round" stroke-miterlimit="10" stroke-width="2.773"/>
            </g>
            <g id="g2125" transform="translate(14.136 -26.625)">
              <path id="path2127" d="M0,0H19.969" fill="none" stroke="#000" stroke-linecap="round" stroke-linejoin="round" stroke-miterlimit="10" stroke-width="2.773"/>
            </g>
            <g id="g2129" transform="translate(14.136 -17.75)">
              <path id="path2131" d="M0,0H14.977" fill="none" stroke="#000" stroke-linecap="round" stroke-linejoin="round" stroke-miterlimit="10" stroke-width="2.773"/>
            </g>
            <g id="g2133" transform="translate(47.483 -1.387)">
              <path id="path2135" d="M0,0H-43.332V-68.221H-2.285l8.875,8.87v16.572" fill="none" stroke="#000" stroke-linecap="round" stroke-linejoin="round" stroke-miterlimit="10" stroke-width="2.773"/>
            </g>
          </g>
        </g>
      </g>
    </g>
  </g>
</svg>
