<svg xmlns="http://www.w3.org/2000/svg" xmlns:xlink="http://www.w3.org/1999/xlink" width="118" height="118" viewBox="0 0 118 118">
  <defs>
    <filter id="Rectángulo_411831" x="0" y="0" width="118" height="118" filterUnits="userSpaceOnUse">
      <feOffset dy="3" input="SourceAlpha"/>
      <feGaussianBlur stdDeviation="3" result="blur"/>
      <feFlood flood-opacity="0.161"/>
      <feComposite operator="in" in2="blur"/>
      <feComposite in="SourceGraphic"/>
    </filter>
    <clipPath id="clip-path">
      <rect id="Rectángulo_435954" data-name="Rectángulo 435954" width="75" height="71" transform="translate(801.051 3428)" fill="#fff" stroke="#707070" stroke-width="1"/>
    </clipPath>
  </defs>
  <g id="Grupo_1265221" data-name="Grupo 1265221" transform="translate(-791.897 -5369.485)">
    <g id="Grupo_1265212" data-name="Grupo 1265212" transform="translate(11.983 1962.18)">
      <g transform="matrix(1, 0, 0, 1, 779.91, 3407.31)" filter="url(#Rectángulo_411831)">
        <g id="Rectángulo_411831-2" data-name="Rectángulo 411831" transform="translate(9 6)" fill="#a4e0d4" stroke="#fff" stroke-width="2">
          <path d="M5,0H68a32,32,0,0,1,32,32V95a5,5,0,0,1-5,5H32A32,32,0,0,1,0,68V5A5,5,0,0,1,5,0Z" stroke="none"/>
          <path d="M5,1H68A31,31,0,0,1,99,32V95a4,4,0,0,1-4,4H32A31,31,0,0,1,1,68V5A4,4,0,0,1,5,1Z" fill="none"/>
        </g>
      </g>
      <g id="Enmascarar_grupo_1099733" data-name="Enmascarar grupo 1099733" clip-path="url(#clip-path)">
        <g id="Layer_x0020_1" transform="translate(801.051 3426.022)">
          <path id="Trazado_1301243" data-name="Trazado 1301243" d="M66.213,45.123c-4.613,0-4.7-7.206,0-7.206a3.584,3.584,0,0,1,3.515,3.515A3.622,3.622,0,0,1,66.213,45.123ZM69.42,67.794H17.267a5.528,5.528,0,0,1-5.536-5.141C11.424,61.731,0,46.265,0,39.675A13.055,13.055,0,0,1,11.731,26.714V12.742a5.55,5.55,0,0,1,5.536-5.58H69.42A5.588,5.588,0,0,1,75,12.742V62.258A5.55,5.55,0,0,1,69.42,67.794ZM14.367,62.61a2.9,2.9,0,0,0,2.9,2.548H69.42a2.935,2.935,0,0,0,2.944-2.9V12.742A2.944,2.944,0,0,0,69.42,9.8H17.267a2.935,2.935,0,0,0-2.9,2.944V26.714A13.009,13.009,0,0,1,25.923,39.675C25.923,45.343,18.322,56.019,14.367,62.61Zm48.9-.967H23.418a2.644,2.644,0,0,1-2.636-2.636V54.35a2.62,2.62,0,0,1,2.636-2.5H63.269a2.593,2.593,0,0,1,2.5,2.5v4.657A2.591,2.591,0,0,1,63.269,61.643ZM23.418,54.482v4.525H63.137V54.482ZM13.049,29.306A10.4,10.4,0,0,0,2.636,39.675c0,4.262,6.766,14.631,10.369,20.079,3.427-5.492,10.281-15.641,10.281-20.079A10.333,10.333,0,0,0,13.049,29.306Zm0,17.267a6.811,6.811,0,1,1,0-13.62,6.811,6.811,0,0,1,0,13.62Zm0-10.984a4.175,4.175,0,1,0,4.086,4.086A4.233,4.233,0,0,0,13.049,35.589Zm24.649-8.3H19.332a1.3,1.3,0,0,1-1.318-1.318V17.882a1.3,1.3,0,0,1,1.318-1.318H37.7a1.3,1.3,0,0,1,1.318,1.318v8.084A1.3,1.3,0,0,1,37.7,27.285ZM20.65,24.649H36.38V19.2H20.65Zm24.6.835c-4.745,0-4.613-7.03,0-7.03a3.584,3.584,0,0,1,3.515,3.515A3.47,3.47,0,0,1,45.255,25.483Zm0-4.394a.879.879,0,1,0,0,1.757C46.485,22.847,46.309,21.09,45.255,21.09Zm10.413,4.394a3.47,3.47,0,0,1-3.515-3.515,3.581,3.581,0,0,1,7.162,0A3.5,3.5,0,0,1,55.668,25.483Zm0-4.394a.879.879,0,1,0,0,1.757A.889.889,0,1,0,55.668,21.09Zm10.545,4.394c-4.745,0-4.613-7.03,0-7.03a3.584,3.584,0,0,1,3.515,3.515A3.47,3.47,0,0,1,66.213,25.483Zm0-4.394a.879.879,0,1,0,0,1.757C67.443,22.847,67.267,21.09,66.213,21.09ZM45.255,35.281c-4.7,0-4.613-7.162,0-7.162a3.581,3.581,0,0,1,0,7.162Zm0-4.525a.946.946,0,0,0,0,1.889C46.441,32.645,46.353,30.756,45.255,30.756Zm10.413,4.525a3.525,3.525,0,0,1-3.515-3.515,3.583,3.583,0,0,1,3.515-3.647,3.638,3.638,0,0,1,3.647,3.647A3.583,3.583,0,0,1,55.668,35.281Zm0-4.525a.948.948,0,0,0,0,1.889A.948.948,0,1,0,55.668,30.756Zm10.545,4.525c-4.7,0-4.613-7.162,0-7.162a3.581,3.581,0,0,1,0,7.162Zm0-4.525a.946.946,0,0,0,0,1.889C67.4,32.645,67.311,30.756,66.213,30.756ZM45.255,45.123c-4.613,0-4.7-7.206,0-7.206a3.584,3.584,0,0,1,3.515,3.515A3.622,3.622,0,0,1,45.255,45.123Zm0-4.569c-1.23,0-1.142,1.933,0,1.933C46.353,42.487,46.441,40.554,45.255,40.554Zm10.413,4.569a3.622,3.622,0,0,1-3.515-3.691,3.581,3.581,0,0,1,7.162,0A3.648,3.648,0,0,1,55.668,45.123Zm0-4.569c-1.186,0-1.142,1.933,0,1.933A.967.967,0,1,0,55.668,40.554Zm10.545,0c-1.23,0-1.142,1.933,0,1.933C67.311,42.487,67.4,40.554,66.213,40.554Z" fill-rule="evenodd"/>
          <path id="Trazado_1301244" data-name="Trazado 1301244" d="M20.65,24.649H36.38V19.2H20.65Z" fill="#fff" fill-rule="evenodd"/>
          <path id="Trazado_1301245" data-name="Trazado 1301245" d="M37.7,27.285H19.332a1.3,1.3,0,0,1-1.318-1.318V17.882a1.3,1.3,0,0,1,1.318-1.318H37.7a1.3,1.3,0,0,1,1.318,1.318v8.084A1.3,1.3,0,0,1,37.7,27.285Zm7.557,17.838c-4.613,0-4.7-7.206,0-7.206a3.584,3.584,0,0,1,3.515,3.515A3.622,3.622,0,0,1,45.255,45.123Zm10.413,0a3.622,3.622,0,0,1-3.515-3.691,3.581,3.581,0,0,1,7.162,0A3.648,3.648,0,0,1,55.668,45.123Zm10.545,0c-4.613,0-4.7-7.206,0-7.206a3.584,3.584,0,0,1,3.515,3.515A3.622,3.622,0,0,1,66.213,45.123ZM23.418,51.845H63.269a2.593,2.593,0,0,1,2.5,2.5v4.657a2.591,2.591,0,0,1-2.5,2.636H23.418a2.644,2.644,0,0,1-2.636-2.636V54.35A2.62,2.62,0,0,1,23.418,51.845ZM17.267,65.158H69.42a2.935,2.935,0,0,0,2.944-2.9V12.742A2.944,2.944,0,0,0,69.42,9.8H17.267a2.935,2.935,0,0,0-2.9,2.944V26.714A13.009,13.009,0,0,1,25.923,39.675c0,5.668-7.6,16.344-11.555,22.935A2.9,2.9,0,0,0,17.267,65.158ZM45.255,25.483c-4.745,0-4.613-7.03,0-7.03a3.584,3.584,0,0,1,3.515,3.515A3.47,3.47,0,0,1,45.255,25.483Zm0,9.8c-4.7,0-4.613-7.162,0-7.162a3.581,3.581,0,0,1,0,7.162Zm10.413-9.8a3.47,3.47,0,0,1-3.515-3.515,3.581,3.581,0,0,1,7.162,0A3.5,3.5,0,0,1,55.668,25.483Zm10.545,0c-4.745,0-4.613-7.03,0-7.03a3.584,3.584,0,0,1,3.515,3.515A3.47,3.47,0,0,1,66.213,25.483Zm-10.545,9.8a3.525,3.525,0,0,1-3.515-3.515,3.583,3.583,0,0,1,3.515-3.647,3.638,3.638,0,0,1,3.647,3.647A3.583,3.583,0,0,1,55.668,35.281Zm10.545,0c-4.7,0-4.613-7.162,0-7.162a3.581,3.581,0,0,1,0,7.162Z" fill="#607d8b" fill-rule="evenodd"/>
          <g id="Grupo_1283529" data-name="Grupo 1283529">
            <path id="Trazado_1301246" data-name="Trazado 1301246" d="M45.255,40.554c-1.23,0-1.142,1.933,0,1.933C46.353,42.487,46.441,40.554,45.255,40.554Z" fill="#90a4ae" fill-rule="evenodd"/>
            <path id="Trazado_1301247" data-name="Trazado 1301247" d="M45.255,32.645c1.186,0,1.1-1.889,0-1.889A.946.946,0,0,0,45.255,32.645Z" fill="#90a4ae" fill-rule="evenodd"/>
            <path id="Trazado_1301248" data-name="Trazado 1301248" d="M45.255,22.847c1.23,0,1.054-1.757,0-1.757A.879.879,0,1,0,45.255,22.847Z" fill="#90a4ae" fill-rule="evenodd"/>
            <path id="Trazado_1301249" data-name="Trazado 1301249" d="M55.668,21.09a.879.879,0,1,0,0,1.757A.889.889,0,1,0,55.668,21.09Z" fill="#90a4ae" fill-rule="evenodd"/>
            <path id="Trazado_1301250" data-name="Trazado 1301250" d="M66.213,21.09a.879.879,0,1,0,0,1.757C67.443,22.847,67.267,21.09,66.213,21.09Z" fill="#90a4ae" fill-rule="evenodd"/>
            <path id="Trazado_1301251" data-name="Trazado 1301251" d="M66.213,32.645c1.186,0,1.1-1.889,0-1.889A.946.946,0,0,0,66.213,32.645Z" fill="#90a4ae" fill-rule="evenodd"/>
            <path id="Trazado_1301252" data-name="Trazado 1301252" d="M55.668,32.645a.946.946,0,1,0,0-1.889A.946.946,0,0,0,55.668,32.645Z" fill="#90a4ae" fill-rule="evenodd"/>
            <path id="Trazado_1301253" data-name="Trazado 1301253" d="M55.668,42.487a.967.967,0,1,0,0-1.933C54.482,40.554,54.525,42.487,55.668,42.487Z" fill="#90a4ae" fill-rule="evenodd"/>
            <path id="Trazado_1301254" data-name="Trazado 1301254" d="M66.213,40.554c-1.23,0-1.142,1.933,0,1.933C67.311,42.487,67.4,40.554,66.213,40.554Z" fill="#90a4ae" fill-rule="evenodd"/>
          </g>
          <path id="Trazado_1301255" data-name="Trazado 1301255" d="M63.137,54.482H23.418v4.525H63.137Z" fill="#4caf50" fill-rule="evenodd"/>
          <path id="Trazado_1301256" data-name="Trazado 1301256" d="M13.005,59.754c3.427-5.492,10.281-15.641,10.281-20.079a10.325,10.325,0,1,0-20.65,0C2.636,43.937,9.4,54.306,13.005,59.754Zm.044-13.181a6.811,6.811,0,1,1,0-13.62,6.811,6.811,0,0,1,0,13.62Z" fill="#ee6161" fill-rule="evenodd"/>
        </g>
      </g>
    </g>
  </g>
</svg>
